<?xml version="1.0" ?><!DOCTYPE svg  PUBLIC '-//W3C//DTD SVG 1.1//EN'  'http://www.w3.org/Graphics/SVG/1.1/DTD/svg11.dtd'><svg enable-background="new 0 0 24 24" height="24px" id="Layer_1" version="1.1" viewBox="0 0 24 24" width="24px" xml:space="preserve" xmlns="http://www.w3.org/2000/svg" xmlns:xlink="http://www.w3.org/1999/xlink"><g><path d="M19.6,20.7c0,0-1.3-0.4-1.9-1.2c2.7-1.9,4.4-5.1,4.4-8.6c0-5.7-4.5-10.4-10-10.4C6.5,0.5,2,5.2,2,10.9s4.5,10.4,10,10.4   c0.7,0,1.4-0.1,2-0.2c0.7,1.1,1.8,2.4,4.1,2.4c0.5,0,1-0.1,1.5-0.2c0.2,0,0.4-0.2,0.4-0.5v-1.7C20,21,19.8,20.8,19.6,20.7z    M17.4,12.2c0,1.7-0.5,3.3-1.4,4.6c-0.1,0.1-0.2,0.2-0.4,0.2c-0.1,0-0.3,0-0.4-0.2c-0.6-0.7-1.9-1.8-3.9-1.8v1.1   c0.6,0.2,1.6,0.6,2.3,1.9c0.1,0.1,0.1,0.3,0,0.4c-0.1,0.1-0.2,0.2-0.3,0.3c-0.4,0.1-0.8,0.2-1.3,0.2c-3,0-5.4-3-5.4-6.7V9.7   C6.7,6,9.1,3,12.1,3c3,0,5.4,3,5.4,6.7V12.2z"/></g></svg>